<svg width="21" height="21" viewBox="0 0 21 21" fill="none" xmlns="http://www.w3.org/2000/svg">
    <path fill-rule="evenodd" clip-rule="evenodd" d="M15.0667 0.846191C18.3914 0.846191 20.6253 3.18002 20.6253 6.65327V14.7474C20.6253 18.2207 18.3914 20.5545 15.0667 20.5545H6.47566C3.15091 20.5545 0.916992 18.2207 0.916992 14.7474V6.65327C0.916992 3.18002 3.15091 0.846191 6.47566 0.846191H15.0667ZM15.0667 2.22119H6.47566C3.93466 2.22119 2.29199 3.96011 2.29199 6.65327V14.7474C2.29199 17.4406 3.93466 19.1795 6.47566 19.1795H15.0667C17.6086 19.1795 19.2503 17.4406 19.2503 14.7474V6.65327C19.2503 3.96011 17.6086 2.22119 15.0667 2.22119ZM10.7712 6.64622C11.1507 6.64622 11.4587 6.95422 11.4587 7.33372V10.0037L14.1321 10.0039C14.5116 10.0039 14.8196 10.3119 14.8196 10.6914C14.8196 11.0709 14.5116 11.3789 14.1321 11.3789L11.4587 11.3787V14.0501C11.4587 14.4296 11.1507 14.7376 10.7712 14.7376C10.3917 14.7376 10.0837 14.4296 10.0837 14.0501V11.3787L7.4102 11.3789C7.02978 11.3789 6.7227 11.0709 6.7227 10.6914C6.7227 10.3119 7.02978 10.0039 7.4102 10.0039L10.0837 10.0037V7.33372C10.0837 6.95422 10.3917 6.64622 10.7712 6.64622Z" fill="white"/>
    </svg>
    