<svg width="15" height="13" viewBox="0 0 15 13" fill="none" xmlns="http://www.w3.org/2000/svg">
    <g clip-path="url(#clip0_1040_62)">
    <path d="M5.41675 12.3215C4.98801 12.3215 4.58194 12.158 4.32174 11.8761L0.800162 8.07381C0.691285 7.95638 0.611798 7.82257 0.566245 7.68003C0.520692 7.53748 0.509966 7.389 0.534681 7.24306C0.559395 7.09713 0.619066 6.9566 0.71028 6.82953C0.801495 6.70245 0.922466 6.59131 1.06628 6.50246C1.21004 6.41324 1.37393 6.34808 1.54856 6.31071C1.7232 6.27335 1.90514 6.26451 2.08396 6.28471C2.26278 6.30492 2.43496 6.35376 2.59064 6.42844C2.74631 6.50312 2.88243 6.60217 2.99117 6.71992L5.30833 9.2199L11.1343 1.57498C11.3275 1.32256 11.6353 1.14307 11.9903 1.07588C12.3452 1.00869 12.7183 1.05929 13.0276 1.21657C13.6712 1.54356 13.8693 2.23622 13.4672 2.76295L6.58371 11.7916C6.46621 11.9464 6.30424 12.0754 6.11187 12.1675C5.91951 12.2596 5.70255 12.3119 5.47983 12.3199C5.45815 12.3215 5.43843 12.3215 5.41675 12.3215Z" fill="#181059"/>
    </g>
    <defs>
    <clipPath id="clip0_1040_62">
    <rect width="13.9806" height="11.7256" fill="white" transform="translate(0.108398 0.821289)"/>
    </clipPath>
    </defs>
    </svg>
    