<svg width="25" height="28" viewBox="0 0 25 28" fill="white" xmlns="http://www.w3.org/2000/svg">
<path fill-rule="evenodd" clip-rule="evenodd" d="M17.2115 0.666626C21.4035 0.666626 24.2195 3.53729 24.2195 7.80929V20.0706C24.2195 24.38 21.4902 27.1826 17.2662 27.2093L7.00885 27.2133C2.81685 27.2133 -0.000488281 24.3426 -0.000488281 20.0706V7.80929C-0.000488281 3.49863 2.72885 0.697293 6.95285 0.671959L17.2102 0.666626H17.2115ZM17.2115 2.66663L6.95951 2.67196C3.85551 2.69063 1.99951 4.61063 1.99951 7.80929V20.0706C1.99951 23.2906 3.87285 25.2133 7.00751 25.2133L17.2595 25.2093C20.3635 25.1906 22.2195 23.268 22.2195 20.0706V7.80929C22.2195 4.58929 20.3475 2.66663 17.2115 2.66663ZM16.9543 18.6316C17.5063 18.6316 17.9543 19.0796 17.9543 19.6316C17.9543 20.1836 17.5063 20.6316 16.9543 20.6316H7.32765C6.77565 20.6316 6.32765 20.1836 6.32765 19.6316C6.32765 19.0796 6.77565 18.6316 7.32765 18.6316H16.9543ZM16.9543 13.0496C17.5063 13.0496 17.9543 13.4976 17.9543 14.0496C17.9543 14.6016 17.5063 15.0496 16.9543 15.0496H7.32765C6.77565 15.0496 6.32765 14.6016 6.32765 14.0496C6.32765 13.4976 6.77565 13.0496 7.32765 13.0496H16.9543ZM11.0006 7.48049C11.5526 7.48049 12.0006 7.92849 12.0006 8.48049C12.0006 9.03249 11.5526 9.48049 11.0006 9.48049H7.32725C6.77525 9.48049 6.32725 9.03249 6.32725 8.48049C6.32725 7.92849 6.77525 7.48049 7.32725 7.48049H11.0006Z"/>
</svg>
