<svg width="22" height="18" viewBox="0 0 22 18" fill="none" xmlns="http://www.w3.org/2000/svg">
<path d="M8.7642 0.664589C8.6598 0.766294 8.2134 1.15032 7.8462 1.50804C5.5368 3.60526 1.7568 9.07628 0.603 11.9398C0.4176 12.3747 0.0252 13.4741 0 14.0616C0 14.6245 0.1296 15.161 0.3924 15.6731C0.7596 16.3113 1.3374 16.8234 2.0196 17.1039C2.493 17.2846 3.9096 17.5651 3.9348 17.5651C5.4846 17.8457 8.0028 18 10.7856 18C13.437 18 15.8526 17.8457 17.4258 17.616C17.451 17.5897 19.2114 17.3091 19.8144 17.0022C20.916 16.4394 21.6 15.3399 21.6 14.1633V14.0616C21.573 13.2953 20.889 11.6838 20.8638 11.6838C19.7082 8.97457 16.1136 3.62981 13.725 1.48174C13.725 1.48174 13.1112 0.876766 12.7278 0.613736C12.177 0.20341 11.4948 4.76837e-07 10.8126 4.76837e-07C10.0512 4.76837e-07 9.342 0.229713 8.7642 0.664589Z" fill="white"/>
</svg>
