<svg width="22" height="22" viewBox="0 0 22 22" fill="none" xmlns="http://www.w3.org/2000/svg">
    <path d="M8.25023 2.0625C8.25023 1.88016 8.32266 1.7053 8.45159 1.57636C8.58052 1.44743 8.75539 1.375 8.93773 1.375C9.12007 1.375 9.29493 1.44743 9.42386 1.57636C9.5528 1.7053 9.62523 1.88016 9.62523 2.0625V18.9654C9.6252 19.1012 9.58491 19.2341 9.50945 19.3471C9.43399 19.46 9.32675 19.5481 9.20125 19.6002C9.07576 19.6523 8.93765 19.666 8.80436 19.6397C8.67107 19.6133 8.54858 19.548 8.45235 19.4521L2.06135 13.0625C1.99733 12.9986 1.94653 12.9228 1.91187 12.8392C1.87722 12.7557 1.85938 12.6662 1.85938 12.5758C1.85938 12.4853 1.87722 12.3958 1.91187 12.3123C1.94653 12.2287 1.99733 12.1529 2.06135 12.089H2.0641C2.19297 11.9605 2.36752 11.8884 2.54948 11.8884C2.73144 11.8884 2.90599 11.9605 3.03485 12.089L8.25023 17.3085V2.0625ZM12.3752 3.03463C12.3755 2.89887 12.416 2.76625 12.4916 2.65347C12.5671 2.54069 12.6744 2.4528 12.7998 2.40089C12.9253 2.34898 13.0633 2.33537 13.1964 2.36177C13.3296 2.38817 13.452 2.45341 13.5481 2.54925L19.9391 8.9375C20.0031 9.00136 20.0539 9.07723 20.0886 9.16075C20.1232 9.24428 20.1411 9.33382 20.1411 9.42425C20.1411 9.51468 20.1232 9.60422 20.0886 9.68775C20.0539 9.77127 20.0031 9.84714 19.9391 9.911H19.9364C19.8075 10.0395 19.6329 10.1116 19.451 10.1116C19.269 10.1116 19.0945 10.0395 18.9656 9.911L13.7502 4.69425V19.9375C13.7502 20.1198 13.6778 20.2947 13.5489 20.4236C13.4199 20.5526 13.2451 20.625 13.0627 20.625C12.8804 20.625 12.7055 20.5526 12.5766 20.4236C12.4477 20.2947 12.3752 20.1198 12.3752 19.9375V3.03463Z" fill="white"/>
    </svg>