<svg width="28" height="15" viewBox="0 0 28 27" fill="black" xmlns="http://www.w3.org/2000/svg">
    <path d="M14.3131 1.38537C16.4811 0.0147022 19.3611 -0.363965 21.8491 0.433369C27.2611 2.1787 28.9411 8.0787 27.4384 12.7734C25.1198 20.1467 15.2171 25.6467 14.7971 25.8774C14.6478 25.96 14.4824 26.0014 14.3171 26.0014C14.1518 26.0014 13.9878 25.9614 13.8384 25.88C13.4211 25.652 3.59045 20.2334 1.19445 12.7747C1.19311 12.7747 1.19311 12.7734 1.19311 12.7734C-0.310887 8.07737 1.36378 2.17604 6.77045 0.433369C9.30911 -0.387965 12.0758 -0.0266312 14.3131 1.38537ZM7.38378 2.33737C3.00911 3.74804 1.91045 8.45337 3.09845 12.164C4.96778 17.98 12.3531 22.6827 14.3158 23.8467C16.2851 22.6707 23.7238 17.916 25.5331 12.1694C26.7211 8.4547 25.6184 3.74937 21.2371 2.33737C19.1144 1.65604 16.6384 2.0707 14.9291 3.39337C14.5718 3.66804 14.0758 3.67337 13.7158 3.40137C11.9051 2.04004 9.53978 1.64137 7.38378 2.33737ZM19.9571 4.98523C21.7744 5.57324 23.0478 7.18257 23.2038 9.08523C23.2478 9.6359 22.8384 10.1186 22.2878 10.1626C22.2598 10.1652 22.2331 10.1666 22.2051 10.1666C21.6891 10.1666 21.2518 9.77057 21.2091 9.2479C21.1211 8.1519 20.3878 7.22657 19.3438 6.88924C18.8171 6.71857 18.5291 6.15457 18.6984 5.63057C18.8704 5.10524 19.4291 4.8199 19.9571 4.98523Z"/>
    </svg>
    