<svg width="28" height="16" viewBox="0 0 28 28" fill="none" xmlns="http://www.w3.org/2000/svg">
    <path d="M25.6673 14H18.6673L16.334 17.5H11.6673L9.33398 14H2.33398" stroke="black" stroke-width="2" stroke-linecap="round" stroke-linejoin="round"/>
    <path d="M6.35898 5.9615L2.33398 13.9998V20.9998C2.33398 21.6187 2.57982 22.2122 3.0174 22.6498C3.45499 23.0873 4.04848 23.3332 4.66732 23.3332H23.334C23.9528 23.3332 24.5463 23.0873 24.9839 22.6498C25.4215 22.2122 25.6673 21.6187 25.6673 20.9998V13.9998L21.6423 5.9615C21.4491 5.57276 21.1514 5.2456 20.7824 5.01683C20.4135 4.78806 19.9881 4.66673 19.554 4.6665H8.44732C8.01322 4.66673 7.58779 4.78806 7.21887 5.01683C6.84995 5.2456 6.55216 5.57276 6.35898 5.9615V5.9615Z" stroke="black" stroke-width="2" stroke-linecap="round" stroke-linejoin="round"/>
    </svg>
    