<svg width="445" height="557" viewBox="0 0 445 557" fill="none" xmlns="http://www.w3.org/2000/svg">
<path d="M143.919 -8.94727C182.755 9.04265 120.225 166.669 308.399 166.669C407.772 166.669 386.355 295.454 446.321 304.591" stroke="#F6F5FA"/>
<path d="M251.859 -50.924C290.694 -32.934 228.165 124.692 416.338 124.692C515.711 124.692 494.294 253.477 554.261 262.615" stroke="#F6F5FA"/>
<path d="M-27.4131 101.335C35.6173 89.9181 164.664 89.9017 138.78 157.219C95.9464 268.611 196.795 378.049 466.025 399.681" stroke="#F6F5FA"/>
<path d="M-143.919 142.854C-66.0066 128.764 93.51 128.744 61.5133 211.821C8.5668 349.292 133.227 484.35 466.025 511.047" stroke="#F6F5FA"/>
<path d="M-224.446 212.317C-136.247 196.362 44.3296 196.339 8.10866 290.417C-51.828 446.092 89.29 599.035 466.025 629.267" stroke="#F6F5FA"/>
</svg>
