<svg width="78" height="76" viewBox="0 0 78 76" fill="none" xmlns="http://www.w3.org/2000/svg">
<path d="M39 0C60.4952 0 78 16.8322 78 37.5412C78 58.2068 60.4952 75.039 39 75.039C17.5048 75.039 0 58.2068 0 37.5412C0 16.8322 17.5048 0 39 0ZM34.5579 22.6239C33.7297 22.6239 32.9392 22.8049 32.1863 23.1669C31.2452 23.6737 30.4923 24.47 30.0782 25.4112C29.8147 26.0627 29.4006 28.0175 29.4006 28.0536C28.9865 30.1893 28.7606 33.6644 28.7606 37.5014C28.7606 41.161 28.9865 44.4877 29.3253 46.6596C29.3629 46.6958 29.777 49.121 30.2288 49.9536C31.057 51.4739 32.6757 52.4151 34.4073 52.4151H34.5579C35.6873 52.3789 38.0589 51.4377 38.0589 51.4015C42.0492 49.8088 49.917 44.8496 53.0792 41.5556L53.305 41.3384C53.7191 40.9402 54.2461 40.3249 54.3591 40.1801C54.9614 39.4199 55.2625 38.4787 55.2625 37.5412C55.2625 36.4878 54.9237 35.5105 54.2838 34.7141C54.1332 34.5693 53.5685 33.954 53.0415 33.4472C49.9546 30.2617 41.8986 25.0492 37.6824 23.4565C37.0425 23.2067 35.4237 22.6601 34.5579 22.6239Z" fill="#FB48C4"/>
</svg>
