<svg width="106" height="107" viewBox="0 0 106 107" fill="none" xmlns="http://www.w3.org/2000/svg">
    <path fill-rule="evenodd" clip-rule="evenodd" d="M52.7812 0.333374C81.7477 0.333374 105.312 24.0897 105.312 53.2917C105.312 82.4937 81.7477 106.25 52.7812 106.25C23.8148 106.25 0.25 82.4937 0.25 53.2917C0.25 24.0897 23.8148 0.333374 52.7812 0.333374ZM52.7812 8.08337C28.0531 8.08337 7.9375 28.3625 7.9375 53.2917C7.9375 78.2209 28.0531 98.5 52.7812 98.5C77.5094 98.5 97.625 78.2209 97.625 53.2917C97.625 28.3625 77.5094 8.08337 52.7812 8.08337ZM50.6329 35.2673C53.2979 36.3884 71.999 46.0449 71.999 53.2679C71.999 60.0363 55.1685 69.5016 50.8686 71.3099C49.1927 72.0126 47.2811 72.6739 45.4925 72.6739C44.1087 72.6739 42.7967 72.2761 41.7256 71.2014C40.9005 70.3799 38.6967 68.1841 38.6865 53.7226C38.6814 38.3673 40.9722 36.0836 41.7256 35.3241C44.406 32.6478 48.7725 34.4819 50.6329 35.2673ZM47.0607 42.1131C46.1536 47.2849 46.1382 59.6384 47.0454 64.5468C51.5451 62.9451 61.2929 56.4868 63.9169 53.2886C61.3031 50.1834 51.6783 43.8594 47.0607 42.1131Z" fill="white"/>
    </svg>
    