<svg width="23" height="28" viewBox="0 0 23 28" fill="white" xmlns="http://www.w3.org/2000/svg">
<path d="M14.6341 0.667114C14.6914 0.667114 14.7475 0.671936 14.8021 0.681195L14.9846 0.682314C15.2566 0.682314 15.5166 0.792981 15.706 0.988981L22.4593 8.02498C22.638 8.21031 22.7381 8.45965 22.7381 8.71698V20.9383C22.762 24.2836 20.1566 27.017 16.806 27.153L6.11395 27.1543H5.96862C2.70203 27.0805 0.0821697 24.4386 0.00235557 21.2039L0.00195312 6.65431C0.0792865 3.34631 2.81129 0.682314 6.09529 0.682314L14.466 0.681195C14.5207 0.671936 14.5768 0.667114 14.6341 0.667114ZM13.634 2.68178L6.09795 2.68231C3.88862 2.68231 2.05395 4.47165 2.00195 6.67831V20.9383C1.95262 23.2223 3.75262 25.1036 6.01395 25.1543H16.766C18.9913 25.0623 20.754 23.213 20.7381 20.9463L20.738 9.97778L18.0581 9.97911C15.6181 9.97245 13.6341 7.98311 13.6341 5.54578L13.634 2.68178ZM14.385 17.4779C14.937 17.4779 15.385 17.9259 15.385 18.4779C15.385 19.0299 14.937 19.4779 14.385 19.4779H7.18502C6.63302 19.4779 6.18502 19.0299 6.18502 18.4779C6.18502 17.9259 6.63302 17.4779 7.18502 17.4779H14.385ZM11.6585 12.4752C12.2105 12.4752 12.6585 12.9232 12.6585 13.4752C12.6585 14.0272 12.2105 14.4752 11.6585 14.4752H7.18382C6.63182 14.4752 6.18382 14.0272 6.18382 13.4752C6.18382 12.9232 6.63182 12.4752 7.18382 12.4752H11.6585ZM15.634 3.80311L15.6341 5.54578C15.6341 6.88445 16.7234 7.97511 18.0608 7.97911L19.642 7.97778L15.634 3.80311Z"/>
</svg>
